<svg width="20" height="20" viewBox="0 0 20 20" fill="none" xmlns="http://www.w3.org/2000/svg">
<path d="M15.875 4.09167C15.1109 3.32009 14.2009 2.70831 13.1979 2.29197C12.195 1.87564 11.1192 1.66307 10.0333 1.66667C5.48334 1.66667 1.77501 5.375 1.77501 9.925C1.77501 11.3833 2.15834 12.8 2.87501 14.05L1.70834 18.3333L6.08334 17.1833C7.29168 17.8417 8.65001 18.1917 10.0333 18.1917C14.5833 18.1917 18.2917 14.4833 18.2917 9.93334C18.2917 7.725 17.4333 5.65 15.875 4.09167ZM10.0333 16.7917C8.80001 16.7917 7.59168 16.4583 6.53334 15.8333L6.28334 15.6833L3.68334 16.3667L4.37501 13.8333L4.20834 13.575C3.52297 12.4809 3.15911 11.2161 3.15834 9.925C3.15834 6.14167 6.24168 3.05834 10.025 3.05834C11.8583 3.05834 13.5833 3.775 14.875 5.075C15.5147 5.71156 16.0216 6.46879 16.3664 7.30278C16.7111 8.13677 16.8868 9.03091 16.8833 9.93334C16.9 13.7167 13.8167 16.7917 10.0333 16.7917ZM13.8 11.6583C13.5917 11.5583 12.575 11.0583 12.3917 10.9833C12.2 10.9167 12.0667 10.8833 11.925 11.0833C11.7833 11.2917 11.3917 11.7583 11.275 11.8917C11.1583 12.0333 11.0333 12.05 10.825 11.9417C10.6167 11.8417 9.95001 11.6167 9.16668 10.9167C8.55001 10.3667 8.14168 9.69167 8.01668 9.48334C7.90001 9.275 8.00001 9.16667 8.10834 9.05834C8.20001 8.96667 8.31668 8.81667 8.41668 8.7C8.51668 8.58334 8.55834 8.49167 8.62501 8.35834C8.69168 8.21667 8.65834 8.1 8.60834 8C8.55834 7.9 8.14168 6.88334 7.97501 6.46667C7.80834 6.06667 7.63334 6.11667 7.50834 6.10834H7.10834C6.96668 6.10834 6.75001 6.15834 6.55834 6.36667C6.37501 6.575 5.84168 7.075 5.84168 8.09167C5.84168 9.10834 6.58334 10.0917 6.68334 10.225C6.78334 10.3667 8.14168 12.45 10.2083 13.3417C10.7 13.5583 11.0833 13.6833 11.3833 13.775C11.875 13.9333 12.325 13.9083 12.6833 13.8583C13.0833 13.8 13.9083 13.3583 14.075 12.875C14.25 12.3917 14.25 11.9833 14.1917 11.8917C14.1333 11.8 14.0083 11.7583 13.8 11.6583Z" fill="white"/>
</svg>
