<svg width="20" height="20" viewBox="0 0 20 20" fill="none" xmlns="http://www.w3.org/2000/svg">
<path d="M10 1.66663C8.90567 1.66663 7.82204 1.88217 6.81099 2.30096C5.79994 2.71975 4.88129 3.33358 4.10746 4.1074C2.54466 5.67021 1.66669 7.78982 1.66669 9.99996C1.66669 13.6833 4.05835 16.8083 7.36669 17.9166C7.78335 17.9833 7.91669 17.725 7.91669 17.5V16.0916C5.60835 16.5916 5.11669 14.975 5.11669 14.975C4.73335 14.0083 4.19169 13.75 4.19169 13.75C3.43335 13.2333 4.25002 13.25 4.25002 13.25C5.08335 13.3083 5.52502 14.1083 5.52502 14.1083C6.25002 15.375 7.47502 15 7.95002 14.8C8.02502 14.2583 8.24169 13.8916 8.47502 13.6833C6.62502 13.475 4.68335 12.7583 4.68335 9.58329C4.68335 8.65829 5.00002 7.91663 5.54169 7.32496C5.45835 7.11663 5.16669 6.24996 5.62502 5.12496C5.62502 5.12496 6.32502 4.89996 7.91669 5.97496C8.57502 5.79163 9.29169 5.69996 10 5.69996C10.7084 5.69996 11.425 5.79163 12.0834 5.97496C13.675 4.89996 14.375 5.12496 14.375 5.12496C14.8334 6.24996 14.5417 7.11663 14.4584 7.32496C15 7.91663 15.3167 8.65829 15.3167 9.58329C15.3167 12.7666 13.3667 13.4666 11.5084 13.675C11.8084 13.9333 12.0834 14.4416 12.0834 15.2166V17.5C12.0834 17.725 12.2167 17.9916 12.6417 17.9166C15.95 16.8 18.3334 13.6833 18.3334 9.99996C18.3334 8.90561 18.1178 7.82198 17.699 6.81093C17.2802 5.79988 16.6664 4.88122 15.8926 4.1074C15.1188 3.33358 14.2001 2.71975 13.189 2.30096C12.178 1.88217 11.0944 1.66663 10 1.66663Z" fill="white"/>
</svg>
